<svg width="173" height="173" xmlns="http://www.w3.org/2000/svg" xmlns:xlink="http://www.w3.org/1999/xlink" xml:space="preserve" overflow="hidden"><defs><clipPath id="clip0"><rect x="198" y="492" width="173" height="173"/></clipPath></defs><g clip-path="url(#clip0)" transform="translate(-198 -492)"><path d="M278.914 622.471C278.013 622.471 276.931 622.291 276.21 621.57 274.769 620.308 274.589 617.966 275.85 616.524L282.878 608.415C284.14 606.973 286.482 606.793 287.924 608.054 289.366 609.316 289.546 611.658 288.284 613.1L281.256 621.209C280.716 621.93 279.815 622.291 278.914 622.471Z"/><path d="M267.921 618.326C266.659 618.506 265.578 618.146 264.497 617.245 262.695 615.623 262.515 612.74 264.136 610.938L272.426 601.386C274.048 599.584 276.931 599.404 278.733 601.026 280.535 602.648 280.716 605.531 279.094 607.333L270.804 616.884C270.083 617.785 269.002 618.326 267.921 618.326Z"/><path d="M256.568 611.658C255.126 611.839 253.684 611.298 252.603 610.397 250.441 608.415 250.08 604.991 252.062 602.828L260.352 593.277C262.334 591.115 265.758 590.754 267.921 592.736 270.083 594.719 270.444 598.143 268.461 600.305L260.172 609.856C259.271 610.938 257.829 611.658 256.568 611.658Z"/><path d="M243.413 604.991C241.971 605.171 240.529 604.63 239.448 603.729 237.285 601.747 236.925 598.323 238.907 596.16L248.458 585.348C250.441 583.185 253.865 582.825 256.027 584.807 258.19 586.79 258.55 590.214 256.568 592.376L247.017 603.189C245.935 604.27 244.674 604.81 243.413 604.991Z"/><path d="M206.29 565.345 220.166 573.815C221.788 574.896 224.13 574.355 225.031 572.553L241.791 544.801C242.872 543.179 242.331 540.836 240.529 539.935L226.833 531.466 206.29 565.345Z"/><path d="M323.065 588.952 294.051 564.083 292.069 562.281 279.634 576.518C277.832 578.68 275.309 579.942 272.426 580.122 272.066 580.122 271.705 580.122 271.525 580.122 268.822 580.122 266.299 579.221 264.497 577.419 259.992 573.454 259.631 566.606 263.416 562.101L274.048 549.847C265.758 548.766 255.126 553.091 244.133 547.684L228.455 573.634 240.709 587.871 245.395 582.465C247.017 580.482 249.54 579.401 252.243 579.401L252.243 579.401C254.405 579.401 256.568 580.122 258.19 581.564 260.172 583.185 261.073 585.528 261.253 588.051 262.154 587.691 263.235 587.51 264.317 587.51 266.479 587.51 268.642 588.231 270.264 589.673 272.246 591.475 273.327 593.818 273.327 596.341 274.048 596.16 274.949 595.98 275.67 595.98L275.67 595.98C277.652 595.98 279.454 596.701 281.076 597.963 282.698 599.404 283.599 601.386 283.779 603.549 284.32 603.369 285.041 603.189 285.761 603.189L285.761 603.189C287.564 603.189 289.185 603.729 290.447 604.991 291.889 606.252 292.79 608.054 292.97 609.856 293.15 611.839 292.429 613.641 291.168 615.082L285.041 622.11 287.564 624.093C288.825 624.814 290.267 625.354 291.889 625.174 295.853 624.814 298.736 621.39 298.376 617.425 298.376 617.425 298.376 617.245 298.376 617.245 298.917 617.425 299.638 617.425 300.178 617.425 304.143 617.065 307.026 613.641 306.666 609.676 306.666 609.676 306.666 609.496 306.666 609.496 307.206 609.676 307.927 609.676 308.468 609.676 312.432 609.316 315.316 605.892 314.955 601.927 314.955 601.567 314.775 601.206 314.775 600.846 315.856 601.386 317.118 601.747 318.559 601.567 322.524 601.206 325.407 597.782 325.047 593.818 325.227 591.835 324.326 590.214 323.065 588.952Z"/><path d="M362.71 565.345 348.834 573.815C347.213 574.896 344.87 574.355 343.969 572.553L327.209 544.801C326.128 543.179 326.669 540.836 328.471 539.935L342.347 531.466 362.71 565.345Z"/><path d="M325.047 548.405C310.09 553.811 299.277 548.585 287.203 546.243 287.023 546.243 286.302 546.062 286.302 546.062 284.14 545.882 281.797 546.603 280.175 548.405L265.939 564.624C263.235 567.688 263.596 572.193 266.659 574.716 268.281 575.977 270.083 576.698 272.066 576.518 273.868 576.338 275.67 575.617 276.931 573.995 276.931 573.995 291.708 557.055 291.708 557.055L325.407 586.069 325.407 586.069 325.407 586.069C326.308 586.97 326.669 587.33 327.39 588.411L340.365 573.454 325.047 548.405Z"/></g></svg>